<svg xmlns:svg="http://www.w3.org/2000/svg" xmlns="http://www.w3.org/2000/svg" viewBox="0 0 812 199.6" height="100%" width="100%" xml:space="preserve" version="1.1"><style>.s0{fill:#002f6d;}.s1{fill:#fff;}</style><defs><clipPath clipPathUnits="userSpaceOnUse"><path d="M0 595.3H841.9V0H0Z"/></clipPath></defs><g transform="matrix(1.3333333,0,0,-1.3333333,-156.58693,518.87412)"><g clip-path="url(#clipPath18)"><g transform="translate(329.6772,316.9189)"><path d="m0 0c0 38.2-47.5 69.4-106.1 69.4-58.6 0-106.1-31.2-106.1-69.4 0-1 0-3.7 0-4.1 0-40.6 41.5-73.4 106.1-73.4C-41.1-77.5 0-44.6 0-4.1Z" fill="#002f6d"/></g><g transform="translate(325.6143,316.9531)"><path d="m0 0c0-36-45.7-65.3-102-65.3-56.4 0-102 29.2-102 65.3 0 36.1 45.7 65.3 102 65.3C-45.7 65.3 0 36.1 0 0" fill="#ffe900"/></g><g transform="translate(189.7051,337.5469)"><path d="m0 0c-0.1-0.1-1.1-1.2-0.4-2 1.6-2.1 6.6-3.2 11.6-2.1 3 0.7 6.8 3.7 10.6 6.7 4 3.2 8 6.4 12 7.7 4.3 1.4 7 0.8 8.8 0.2 2-0.6 4.3-1.9 8-4.7 7-5.2 35.1-29.8 39.9-34 3.9 1.8 21.3 9.2 44.9 14.4C133.3-1.2 125.6 10.3 114 19.8 97.9 13 78.1 9.4 58.8 18.9 58.7 18.9 48.2 23.9 37.9 23.6 22.6 23.3 15.9 16.6 8.9 9.6Z" fill="#fff"/></g><g transform="translate(279.0542,306.6982)"><path d="m0 0c-0.3 0.3-33 28.9-40.4 34.5-4.3 3.2-6.7 4-9.2 4.4-1.3 0.2-3.1-0.1-4.4-0.4-3.4-0.9-7.9-3.9-11.9-7.1-4.1-3.3-8-6.4-11.7-7.2-4.6-1-10.3 0.2-12.9 1.9-1 0.7-1.8 1.5-2.1 2.3-1 2.2 0.8 4 1.1 4.3l9 9.8c1 1 2.1 2.1 3.2 3.1-2.9-0.4-5.6-1.1-8.2-1.9-3.3-0.9-6.4-1.8-9.6-1.8-1.3 0-8.4 1.2-9.8 1.5-8.2 2.2-15.3 4.4-26 9.4-12.8-9.5-21.4-21.5-23.9-34.6 1.8-0.5 4.8-1.4 6.1-1.6 29-6.5 38.1-13.1 39.7-14.5 1.8 2 4.3 3.2 7.2 3.2 3.2 0 6.1-1.6 7.9-4.1 1.7 1.3 4 2.4 6.9 2.4 1.3 0 2.7-0.2 4.2-0.7 3.3-1.1 5-3.3 5.8-5.3 1.1 0.5 2.4 0.9 4 0.9 1.6 0 3.2-0.4 4.8-1.1 5.3-2.3 6.2-7.5 5.7-11.5 0.4 0 0.8 0.1 1.2 0.1 6.3 0 11.5-5.2 11.5-11.5 0-2-0.5-3.8-1.4-5.4 1.7-1 6.1-3.2 10-2.7 3.1 0.4 4.3 1.4 4.7 2 0.3 0.4 0.6 0.9 0.3 1.2l-8.2 9.1c0 0-1.3 1.3-0.9 1.8 0.5 0.5 1.3-0.2 1.9-0.7 4.2-3.5 9.3-8.7 9.3-8.7 0.1-0.1 0.4-0.7 2.3-1.1 1.6-0.3 4.5-0.1 6.5 1.5 0.5 0.4 1 0.9 1.4 1.5 0 0-0.1-0.1-0.1-0.1 2.1 2.7-0.2 5.4-0.2 5.4l-9.6 10.7c0 0-1.4 1.3-0.9 1.8 0.4 0.4 1.3-0.2 1.9-0.7 3-2.5 7.3-6.8 11.4-10.8 0.8-0.6 4.4-2.8 9.2 0.3 2.9 1.9 3.5 4.2 3.4 6-0.2 2.3-2 4-2 4L-26 2.6c0 0-1.4 1.2-0.9 1.8 0.4 0.5 1.3-0.2 1.9-0.7 4.2-3.5 15.4-13.8 15.4-13.8 0.2-0.1 4-2.9 8.9 0.2C1-8.9 2.1-7.2 2.2-5.3 2.4-2 0 0 0 0" fill="#fff"/></g><g transform="translate(215.7334,290.0596)"><path d="m0 0c-2 0-4.2-1.2-4.5-1-0.2 0.1 0.1 0.9 0.3 1.4 0.2 0.5 2.9 8.5-3.6 11.3-5 2.1-8-0.3-9.1-1.4-0.3-0.3-0.4-0.3-0.4 0.1-0.1 1.4-0.7 5.4-5 6.7-6.1 1.9-10.1-2.4-11.1-3.9-0.4 3.5-3.4 6.2-7 6.2-3.9 0-7.1-3.2-7.1-7.1 0-3.9 3.2-7.1 7.1-7.1 1.9 0 3.6 0.8 4.9 2 0 0 0.1-0.1 0-0.2-0.3-1.8-0.8-8.2 5.9-10.8 2.7-1 5-0.3 6.9 1.1 0.6 0.4 0.7 0.2 0.6-0.3-0.2-1.6 0.1-5.2 5-7.2 3.8-1.5 6 0 7.4 1.4 0.6 0.6 0.8 0.5 0.8-0.4 0.2-4.8 4.1-8.5 8.9-8.5 4.9 0 9 4 9 8.9C9-4 4.9-0.1 0 0" fill="#fff"/></g><g transform="translate(215.7334,272.79)"><path d="m0 0c-4.5 0-8.1 3.5-8.3 7.9 0 0.4-0.1 1.4-0.9 1.4-0.4 0-0.7-0.2-1-0.5-1-0.9-2.2-1.8-4.1-1.8-0.8 0-1.7 0.2-2.7 0.6-4.7 1.9-4.8 5.2-4.6 6.5 0.1 0.4 0.1 0.7-0.2 1l-0.3 0.3h-0.3c-0.2 0-0.5-0.1-0.8-0.3-1.4-1-2.7-1.4-4-1.4-0.7 0-1.5 0.1-2.2 0.4-6.2 2.4-5.7 8.3-5.4 10.1 0 0.4 0 0.6-0.3 0.8L-35.6 25.2-36 24.8c-1.2-1.2-2.8-1.8-4.5-1.8-3.6 0-6.5 2.9-6.5 6.5 0 3.6 2.9 6.5 6.5 6.5 3.2 0 6-2.4 6.4-5.7l0.2-1.7 1 1.5c0.1 0.2 2.7 4.1 7.5 4.1 0.9 0 1.9-0.1 2.8-0.4 3.8-1.2 4.5-4.6 4.6-6.1 0.1-0.8 0.7-0.9 0.8-0.9 0.3 0 0.6 0.2 0.7 0.4 0.7 0.8 2.3 2 4.8 2 1.1 0 2.3-0.3 3.6-0.8C-2 25.7-4.8 18-4.8 17.9-5.3 16.6-5.3 16-4.8 15.7l0.2-0.1h0.2c0.3 0 0.6 0.1 1.2 0.3 0.8 0.3 2.1 0.7 3.3 0.7H0C4.6 16.6 8.3 12.8 8.3 8.3 8.3 3.7 4.6 0 0 0m64.6 37.3c-10.1 8.8-33.3 29-39.6 33.7-3.6 2.7-6.1 4.1-8.2 4.8-1 0.3-2.3 0.6-4 0.6-1.6 0-3.3-0.3-5.1-0.9-4.1-1.3-8.1-4.5-12.1-7.6l-0.2-0.2c-3.7-2.9-7.4-5.9-10.3-6.5-1.2-0.3-2.5-0.4-3.8-0.4-3.2 0-6.1 0.9-7.2 2.3-0.2 0.2-0.1 0.6 0.4 1.1l0.1 0.1 8.9 9.5c6.9 6.9 13.5 13.5 28.6 13.8 0.3 0 0.5 0 0.8 0 9.4 0 18.8-4.2 19.8-4.7 8.8-4.3 17.9-6.5 27-6.5 9.5 0 19.3 2.4 29.7 7.1-1.2 1-2.4 1.9-3.6 2.8-9.1-3.9-17.7-5.9-26-5.9-8.5 0-17 2.1-25.3 6.1-0.4 0.2-10.8 5.1-21.6 5.1-0.3 0-0.6 0-0.9 0-12.7-0.3-19.8-4.8-24.6-8.7-4.7-0.1-8.7-1.2-12.3-2.2-3.2-0.9-6-1.7-8.6-1.7-1.1 0-3.1 0.1-3.3 0.1-3.1 0.1-18.7 3.9-31.1 8.6-1.3-0.9-2.5-1.8-3.7-2.8 13-5.3 28.7-9.4 33.7-9.7 1.4-0.1 2.9-0.2 4.3-0.2 3.3 0 6.6 0.9 9.8 1.8 1.9 0.5 4 1.1 6.1 1.5-0.6-0.6-1.2-1.1-1.7-1.7l-9-9.7c-0.7-0.7-2.2-2.6-1.2-5 0.4-0.9 1.2-1.9 2.4-2.6 2.1-1.4 6-2.4 9.6-2.4 1.4 0 2.6 0.1 3.8 0.4 3.8 0.8 7.7 4 11.9 7.3 3.3 2.7 8.1 6 11.7 7 1 0.3 2.3 0.4 3.3 0.4 0.3 0 0.6 0 0.8 0 2.4-0.3 4.7-1.1 8.9-4.2 7.4-5.5 40.1-34.1 40.4-34.4 0 0 2.1-1.8 2-4.8-0.1-1.7-1-3.1-2.6-4.2-1.4-0.9-2.8-1.3-4.3-1.3-2.2 0-3.7 1-3.8 1.1-0.1 0.1-11.3 10.4-15.4 13.8-0.7 0.5-1.3 1-1.9 1-0.3 0-0.6-0.1-0.9-0.4-0.6-0.8 0.1-1.9 0.9-2.6L50 22.9c0 0 1.6-1.5 1.8-3.5 0.1-2.2-0.9-4-3.1-5.4-1.5-1-3.1-1.5-4.6-1.5-2 0-3.4 0.9-3.7 1.1l-1.9 1.8c-3.4 3.4-7 6.9-9.6 9-0.6 0.5-1.3 1-2 1-0.3 0-0.6-0.1-0.8-0.3-0.3-0.3-0.5-0.9 0.2-1.9 0.3-0.4 0.7-0.7 0.7-0.7L36.5 11.7C36.6 11.6 38.5 9.3 36.8 7.1L36.4 6.7C36.1 6.4 35.8 6.1 35.5 5.8 33.9 4.5 31.7 4.3 30.9 4.3c-0.5 0-0.9 0-1.3 0.1-0.9 0.2-1.6 0.4-1.9 0.8l-0.1 0.1c-0.5 0.5-5.3 5.5-9.3 8.8-0.5 0.4-1.2 1-1.9 1-0.3 0-0.6-0.1-0.9-0.4-0.8-0.9 0.4-2.2 0.9-2.6L24.6 3.2C24.6 3.1 24.5 2.9 24.3 2.6 24 2.2 23 1.2 20 0.8 19.7 0.8 19.3 0.8 19 0.8c-3 0-6.3 1.5-8 2.4 0.8 1.6 1.2 3.4 1.2 5.2 0 6.7-5.4 12.1-12.1 12.2-0.1 0-0.3 0-0.4 0 0.2 3.1-0.2 8.9-6.2 11.4-1.7 0.7-3.4 1.1-5.1 1.1-1.3 0-2.5-0.2-3.7-0.7-1.2 2.4-3.3 4.1-5.9 5-1.5 0.5-2.9 0.8-4.4 0.8-2.5 0-4.8-0.7-6.8-2.2-1.9 2.4-4.9 3.9-8 3.9-2.7 0-5.3-1.1-7.3-3-2.5 1.9-12.6 8.3-39.5 14.4-1.3 0.3-4.3 1.2-6.1 1.7-0.3-1.5-0.5-2.9-0.7-4.4 0 0 5-1.2 5.9-1.4 27.5-6.1 36.6-12.5 38.1-13.7-0.5-1.2-0.8-2.6-0.8-4 0-5.7 4.6-10.3 10.3-10.3 0.6 0 1.3 0.1 1.9 0.2 0.9-4.2 3.6-7.3 7.8-9 1.2-0.5 2.5-0.7 3.7-0.7 0.8 0 1.6 0.1 2.3 0.3 0.8-2 2.5-4.4 6.4-6 1.4-0.5 2.7-0.8 4-0.8 1.1 0 2.1 0.2 3.1 0.6 1.9-4.5 6.3-7.5 11.2-7.5 3.3 0 6.4 1.3 8.7 3.7 2-1.1 6.1-3.1 10.3-3.1 0.5 0 1.1 0 1.6 0.1 4.2 0.5 6.1 2.1 7 3.4 0.2 0.2 0.3 0.5 0.4 0.7 1-0.3 2.1-0.5 3.3-0.5 2.3 0 4.4 0.8 6.6 2.4 2.2 1.6 3.7 3.8 3.9 5.7 0 0 0 0.1 0 0.1 0.7-0.2 1.5-0.2 2.2-0.2 2.3 0 4.6 0.7 6.8 2.2 4.2 2.8 5 6.4 4.9 8.8 0.7-0.2 1.5-0.2 2.3-0.2 2.2 0 4.3 0.7 6.4 2 2.6 1.7 4.2 4.2 4.4 7.2 0.2 2-0.3 4.1-1.4 5.8 7.1 3.1 23.3 9 42.4 13.3-0.1 1.5-0.3 2.9-0.6 4.4C86.1 46.7 68.9 39.3 64.6 37.3" fill="#002f6d"/></g><g transform="translate(372.3848,355.1846)"><path d="m0 0v-31.2h-12.5v28.7c0 13.9 7 20.9 21 20.9 6.3 0 11.1-1.4 14.6-4.2 3.5 2.7 8.3 4 14.6 4 13.9 0 20.9-6.9 20.8-20.9v-28.7h-6.4c-4.1 0.3-6.1 2.2-6.1 6.1v25.1c-0.3 5.1-3 7.6-8.5 7.6-5.4 0-8.2-2.5-8.3-7.6V-31.2H16.8V0C16.5 5.1 13.8 7.6 8.3 7.6 2.9 7.6 0.1 5.1 0 0" fill="#002f6d"/></g><g transform="translate(491.0654,348.9932)"><path d="m0 0c0.4 15.8 8.2 24.6 24.5 24.6h3.7V11.8L22.5 11.7C15.7 11.7 12.5 7.3 12.5 0.2V-25.2H0Z" fill="#002f6d"/></g><g transform="translate(604.4424,344.4316)"><path d="M0 0V4C-2.9 2.8-6.2 2.3-9.8 1.6c-4.9-0.9-7.4-3.2-7.4-6.8 0.3-3.9 2.3-5.7 6.2-5.7C-4.2-11 0-6.9 0 0m-16.4 13.8-11.4 0c0.4 9.4 5.2 15.7 19.1 15.7 13.5 0 20.3-4.4 20.6-13.5V-0.6c0-13.5-8.1-19.5-21.3-20.4-11.7-0.9-19.9 4.5-19.9 15.3 0.3 11.7 8.8 14.9 21.1 16.1 5.3 0.6 7.9 2.2 7.9 4.9-0.3 2.8-2.9 4.1-7.9 4.2-5.8 0.1-7.6-3.4-8.3-5.7" fill="#002f6d"/></g><g transform="translate(636.0684,348.5366)"><path d="m0 0c-0.1-9.9 3.2-14.9 10.3-14.9 7 0 10.5 5 10.5 14.9C20.5 9.4 17.1 14 10.4 14 3.8 14 0.4 9.4 0 0M33 40.6V-3.4c0-14.7-7.7-22-22.9-21.9-15.1 0.3-22.7 8.5-22.7 24.8 0 16.6 6.5 25.1 19.5 25.6 6.1 0 10.8-2.5 13.9-7.6v15.6l0 1.4c4.1 6.1 12.2 6.2 12.2 6.2" fill="#002f6d"/></g><g transform="translate(450.3125,316.3428)"><path d="M0 0H3.2V-64.7H-9.1V-7.9C-9.1-6.1-5.2 0 0 0" fill="#002f6d"/></g><g transform="translate(513.6289,262.0811)"><path d="m0 0c-7 0-10.3 5-10.3 14.9 0.4 9.4 3.8 14 10.4 14 6.6 0 10.1-4.6 10.3-14C10.5 5 7 0 0 0m3.6 39.9c-6.1 0-10.7-2.5-13.9-7.6l0 21.9h-1.4c-6.1-0.1-9.3-3.3-10.9-6V48.7 11.5c0-14.7 7.7-22 22.9-21.9 15.1 0.3 22.7 8.5 22.7 24.8 0 16.6-6.5 25.1-19.5 25.6" fill="#002f6d"/></g><g transform="translate(467.5215,361.2886)"><path d="m0 0c-1.6 1.7-3.9 2.6-7.1 2.6-2.1 0-3.8-0.4-5.2-1.1-1.4-0.7-2.5-1.6-3.3-2.6-0.8-1-1.4-2.1-1.7-3.3C-17.7-5.6-17.9-6.6-18-7.5H3.3C2.7-4.2 1.6-1.7 0 0m-14.8-25c2-1.9 4.8-2.9 8.5-2.9 2.6 0 4.9 0.7 6.8 2 1.9 1.3 3.1 2.7 3.5 4.2h11.5c-1.8-5.7-4.7-9.8-8.5-12.2-3.8-2.5-8.4-3.7-13.8-3.7-3.7 0-7.1 0.6-10.1 1.8-3 1.2-5.6 2.9-7.6 5.1-2.1 2.2-3.7 4.8-4.8 7.9-1.1 3.1-1.7 6.4-1.7 10.1 0 3.6 0.6 6.9 1.7 9.9 1.2 3.1 2.8 5.7 5 8 2.1 2.2 4.7 4 7.7 5.3 3 1.3 6.3 1.9 9.9 1.9 4.1 0 7.6-0.8 10.6-2.3 3-1.6 5.5-3.7 7.4-6.3 1.9-2.6 3.3-5.6 4.2-9 0.9-3.4 1.2-6.9 0.9-10.6H-18c0.2-4.2 1.3-7.3 3.2-9.2" fill="#002f6d"/></g><g transform="translate(546.9404,364.02)"><path d="m0 0c-2.1 0-3.9-0.5-5.3-1.4-1.4-1-2.6-2.2-3.5-3.7-0.9-1.5-1.5-3.2-1.9-5-0.4-1.8-0.6-3.6-0.6-5.4 0-1.7 0.2-3.5 0.6-5.3 0.4-1.8 1-3.4 1.8-4.9 0.8-1.5 2-2.6 3.4-3.6 1.4-0.9 3.2-1.4 5.2-1.4 3.2 0 5.6 0.9 7.3 2.7 1.7 1.8 2.8 4.1 3.2 7.1h12.7c-0.9-6.4-3.3-11.3-7.4-14.6-4.1-3.3-9.3-5-15.7-5-3.6 0-6.9 0.6-9.9 1.8-3 1.2-5.6 2.9-7.7 5.1-2.1 2.2-3.8 4.8-4.9 7.8-1.2 3-1.8 6.3-1.8 9.9 0 3.7 0.5 7.2 1.6 10.4 1.1 3.2 2.7 6 4.8 8.3 2.1 2.3 4.7 4.1 7.7 5.4 3 1.3 6.5 2 10.4 2 2.9 0 5.6-0.4 8.2-1.1 2.6-0.7 5-1.9 7.1-3.4 2.1-1.5 3.8-3.4 5.1-5.7 1.3-2.3 2-4.9 2.2-8H9.8C8.9-2.8 5.6 0 0 0" fill="#002f6d"/></g><g transform="translate(690.4863,342.9561)"><path d="m0 0c0.4-1.8 1-3.5 1.9-4.9 0.9-1.5 2.1-2.6 3.6-3.5 1.5-0.9 3.3-1.3 5.6-1.3 2.2 0 4.1 0.4 5.6 1.3 1.5 0.9 2.7 2 3.6 3.5 0.9 1.5 1.5 3.1 1.9 4.9 0.4 1.8 0.6 3.7 0.6 5.6 0 1.9-0.2 3.8-0.6 5.7-0.4 1.9-1 3.5-1.9 4.9-0.9 1.4-2.1 2.6-3.6 3.5-1.5 0.9-3.4 1.3-5.6 1.3-2.2 0-4.1-0.4-5.6-1.3C4 18.8 2.8 17.7 1.9 16.2 1 14.8 0.4 13.2 0 11.3-0.4 9.4-0.6 7.5-0.6 5.6-0.6 3.7-0.4 1.8 0 0m-12 16.1c1.2 3.1 2.9 5.8 5 8 2.2 2.2 4.8 3.9 7.8 5.1 3 1.2 6.4 1.8 10.2 1.8 3.8 0 7.2-0.6 10.3-1.8 3.1-1.2 5.7-2.9 7.9-5.1 2.2-2.2 3.8-4.9 5-8 1.2-3.1 1.8-6.6 1.8-10.5 0-3.8-0.6-7.3-1.8-10.4-1.2-3.1-2.9-5.8-5-8-2.2-2.2-4.8-3.9-7.9-5.1-3.1-1.2-6.5-1.8-10.3-1.8-3.8 0-7.2 0.6-10.2 1.8-3 1.2-5.6 2.9-7.8 5.1-2.2 2.2-3.8 4.9-5 8-1.2 3.1-1.8 6.6-1.8 10.4 0 3.8 0.6 7.3 1.8 10.5" fill="#002f6d"/></g><g transform="translate(543.9404,276.9932)"><path d="m0 0c0.4 15.8 8.2 24.6 24.5 24.6h3.7V11.8L22.5 11.7C15.7 11.7 12.5 7.3 12.5 0.2V-25.2H0Z" fill="#002f6d"/></g><g transform="translate(606.3789,289.2861)"><path d="m0 0c-1.6 1.7-3.9 2.6-7.1 2.6-2.1 0-3.8-0.4-5.2-1.1-1.4-0.7-2.5-1.6-3.3-2.6-0.8-1-1.4-2.1-1.7-3.3C-17.7-5.6-17.9-6.6-18-7.5H3.3C2.7-4.2 1.6-1.7 0 0m-14.8-25c2-1.9 4.8-2.9 8.5-2.9 2.6 0 4.9 0.7 6.8 2 1.9 1.3 3.1 2.7 3.5 4.2h11.5c-1.8-5.7-4.7-9.8-8.5-12.2-3.8-2.5-8.4-3.7-13.8-3.7-3.7 0-7.1 0.6-10.1 1.8-3 1.2-5.6 2.9-7.6 5.1-2.1 2.2-3.7 4.8-4.8 7.9-1.1 3.1-1.7 6.4-1.7 10.1 0 3.6 0.6 6.9 1.7 9.9 1.2 3.1 2.8 5.7 5 8 2.1 2.2 4.7 4 7.7 5.3 3 1.3 6.3 1.9 9.9 1.9 4.1 0 7.6-0.8 10.6-2.3 3-1.6 5.5-3.7 7.4-6.3 1.9-2.6 3.3-5.6 4.2-9 0.9-3.4 1.2-6.9 0.9-10.6H-18c0.2-4.2 1.3-7.3 3.2-9.2" fill="#002f6d"/></g><path d="m479 305.2h-12.3v11.2h12.3zM479 251.6h-12.3v47.9h12.3z" fill="#002f6d"/></g></g></svg>